<?xml version="1.0" encoding="iso-8859-1"?>
<!-- Uploaded to: SVG Repo, www.svgrepo.com, Generator: SVG Repo Mixer Tools -->
<svg version="1.1" id="Layer_1" xmlns="http://www.w3.org/2000/svg" xmlns:xlink="http://www.w3.org/1999/xlink" 
	 viewBox="0 0 512 512" xml:space="preserve">
<path style="fill:#218649;" d="M378.03,282.074v-9.717c7.155-12.906,11.243-27.75,11.243-43.552c0-49.69-40.281-89.97-89.97-89.97
	c-8.646,0-16.995,1.245-24.908,3.52c-16.383-17.159-39.465-27.865-65.062-27.865c-49.689,0-89.97,40.28-89.97,89.97
	c0,18.126,5.379,34.988,14.602,49.111v28.503c-49.689,0-89.97,40.28-89.97,89.97c0,49.688,40.281,89.97,89.97,89.97H378.03
	c49.689,0,89.97-40.282,89.97-89.97C468,322.355,427.719,282.074,378.03,282.074z"/>
<path style="opacity:0.2;enable-background:new    ;" d="M378.03,282.074v-9.717c7.155-12.906,11.243-27.75,11.243-43.552
	c0-16.799-4.616-32.513-12.631-45.967c-45.997,5.134-81.488,38.22-81.488,78.279c0,38.591,32.94,70.714,76.479,77.602v123.295h6.396
	c9.999,0,19.607-1.655,28.594-4.668v-68.573l42.509-32.225c4.29,2.206,9.247,3.471,14.533,3.471c1.18,0,2.342-0.07,3.486-0.193
	C461.188,315.921,423.573,282.074,378.03,282.074z M406.624,368.851V338.72c9.877-1.563,19.207-4.422,27.731-8.362
	c-0.116,0.967-0.182,1.948-0.182,2.944c0,4.395,1.179,8.54,3.255,12.197L406.624,368.851z"/>
<path style="opacity:0.2;enable-background:new    ;" d="M150.061,182.144c-10.039,0-19.708,1.327-28.778,3.777
	c-1.253,5.985-1.921,12.183-1.921,18.54c0,18.126,5.379,34.988,14.602,49.111v28.503c-23.62,0-45.103,9.115-61.154,24.002
	c0.161,0.195,0.313,0.397,0.477,0.59c-0.405,0.029-0.809,0.067-1.21,0.109c-10.692,10.14-18.89,22.87-23.592,37.198
	c4.547,9.444,14.94,16.046,27.04,16.046c5.286,0,10.243-1.265,14.533-3.471l42.509,32.225v73.206
	c0.467,0.006,0.928,0.035,1.397,0.035h33.593V338.72c43.539-6.889,76.479-39.01,76.479-77.602
	C244.036,217.501,201.962,182.144,150.061,182.144z M132.567,368.851l-30.804-23.353c2.076-3.657,3.255-7.802,3.255-12.197
	c0-0.996-0.066-1.976-0.182-2.944c8.524,3.941,17.854,6.8,27.731,8.362V368.851z"/>
<rect x="116.464" y="294.435" style="fill:#D68231;" width="34.993" height="167.588"/>
<path style="opacity:0.2;enable-background:new    ;" d="M151.457,294.431v59.179c-5.734,0.794-11.58,1.206-17.494,1.206
	c-5.916,0-11.761-0.412-17.496-1.206v-59.179H151.457z"/>
<ellipse style="fill:#00AD68;" cx="133.961" cy="261.115" rx="93.971" ry="78.973"/>
<ellipse style="fill:#7CDFA8;" cx="59.423" cy="333.303" rx="29.493" ry="26.716"/>
<rect x="360.538" y="294.435" style="fill:#D68231;" width="34.993" height="167.588"/>
<path style="opacity:0.2;enable-background:new    ;" d="M360.535,294.431v59.179c5.734,0.794,11.58,1.206,17.494,1.206
	c5.916,0,11.761-0.412,17.496-1.206v-59.179H360.535z"/>
<ellipse style="fill:#00AD68;" cx="378.034" cy="261.115" rx="93.971" ry="78.973"/>
<rect x="406.48" y="324.098" transform="matrix(-0.6041 -0.7969 0.7969 -0.6041 374.3202 914.9063)" style="fill:#D68231;" width="15.877" height="80.75"/>
<ellipse style="fill:#7CDFA8;" cx="452.561" cy="333.303" rx="29.493" ry="26.716"/>
<path style="fill:#00AD68;" d="M504.061,469.667c0,2.351-1.922,4.275-4.275,4.275H12.214c-2.352,0-4.275-1.924-4.275-4.275v-15.302
	c0-2.353,1.923-4.277,4.275-4.277h487.573c2.353,0,4.275,1.924,4.275,4.277V469.667z"/>
<rect x="30.544" y="388.872" style="fill:#A4A9AD;" width="139.009" height="61.209"/>
<rect x="30.544" y="388.872" style="opacity:0.1;enable-background:new    ;" width="139.009" height="24.72"/>
<path style="fill:#D1D3D3;" d="M169.551,374.763H30.544c-5.822,0-10.585,4.763-10.585,10.585v7.058
	c0,5.822,4.763,10.585,10.585,10.585h139.006L169.551,374.763L169.551,374.763z"/>
<rect x="128.933" y="374.763" style="opacity:0.2;enable-background:new    ;" width="40.614" height="75.321"/>
<circle style="opacity:0.1;enable-background:new    ;" cx="42.72" cy="417.303" r="3.705"/>
<circle style="opacity:0.1;enable-background:new    ;" cx="82.053" cy="421.008" r="3.705"/>
<circle style="opacity:0.1;enable-background:new    ;" cx="103.752" cy="432.513" r="3.705"/>
<circle style="opacity:0.1;enable-background:new    ;" cx="119.364" cy="413.598" r="3.705"/>
<rect x="342.438" y="388.872" style="fill:#A4A9AD;" width="139.009" height="61.209"/>
<rect x="342.438" y="388.872" style="opacity:0.1;enable-background:new    ;" width="139.009" height="24.72"/>
<path style="fill:#D1D3D3;" d="M342.442,374.763h139.006c5.822,0,10.585,4.763,10.585,10.585v7.058
	c0,5.822-4.763,10.585-10.585,10.585H342.442V374.763z"/>
<rect x="342.438" y="374.763" style="opacity:0.2;enable-background:new    ;" width="40.614" height="75.321"/>
<circle style="opacity:0.1;enable-background:new    ;" cx="469.275" cy="417.303" r="3.705"/>
<circle style="opacity:0.1;enable-background:new    ;" cx="429.931" cy="421.008" r="3.705"/>
<circle style="opacity:0.1;enable-background:new    ;" cx="408.243" cy="432.513" r="3.705"/>
<circle style="opacity:0.1;enable-background:new    ;" cx="392.631" cy="413.598" r="3.705"/>
<path style="fill:#D1D3D3;" d="M363.611,450.087h-42.339V283.755c0-35.992-29.283-65.276-65.276-65.276
	s-65.276,29.284-65.276,65.276v166.331h-42.339V283.755c0-59.339,48.276-107.615,107.615-107.615s107.615,48.276,107.615,107.615
	V450.087z"/>
<circle style="opacity:0.1;enable-background:new    ;" cx="63" cy="439.923" r="3.705"/>
<circle style="fill:#FFB819;" cx="417.24" cy="88.446" r="50.389"/>
<g>
	<path style="fill:#7CDFA8;" d="M282.345,422.86c9.186-9.185,18.317-39.129,16.788-40.658c-1.529-1.53-31.473,7.602-40.658,16.788
		c-9.187,9.188-11.291,21.976-4.699,28.568C260.367,434.15,273.158,432.048,282.345,422.86z"/>
	<path style="fill:#7CDFA8;" d="M424.448,271.335c9.186-9.188,18.317-39.131,16.788-40.658c-1.53-1.53-31.473,7.602-40.658,16.788
		c-9.186,9.188-11.291,21.976-4.699,28.566C402.47,282.625,415.262,280.52,424.448,271.335z"/>
</g>
<path style="fill:#00AD68;" d="M236.309,363.978c-9.186-9.185-18.317-39.129-16.788-40.658c1.529-1.529,31.473,7.602,40.658,16.788
	c9.186,9.188,11.291,21.976,4.699,28.568C258.287,375.268,245.495,373.166,236.309,363.978z"/>
<path style="fill:#218649;" d="M87.03,280.868c-9.187-9.185-18.317-39.129-16.788-40.658c1.529-1.529,31.473,7.602,40.658,16.788
	c9.187,9.188,11.291,21.976,4.699,28.568C109.008,292.158,96.216,290.054,87.03,280.868z"/>
<path style="fill:#1E252B;" d="M499.786,442.149h-10.4v-33.032c6.247-2.98,10.585-9.34,10.585-16.71v-7.058
	c0-10.213-8.31-18.523-18.523-18.523h-5.664c-0.106-2.008-0.275-4.011-0.503-6.004c8.938-6.339,14.717-16.314,14.717-27.52
	c0-13.972-8.98-26.031-21.872-31.511c7.75-12.457,11.815-26.313,11.815-40.673c0-47.193-44.334-85.721-99.349-86.885
	c-18.249-27.216-48.306-43.336-81.29-43.336c-7.573,0-15.127,0.883-22.516,2.628c-18.275-17.43-42.049-26.973-67.454-26.973
	c-43.197,0-81.008,28.16-93.573,69.044c-47.539,7.339-83.707,42.895-83.707,85.522c0,14.359,4.065,28.216,11.815,40.673
	c-12.892,5.48-21.872,17.538-21.872,31.511c0,11.206,5.779,21.181,14.717,27.52c-0.228,1.993-0.397,3.995-0.503,6.004h-5.664
	c-10.213,0-18.523,8.31-18.523,18.523v7.058c0,7.37,4.338,13.73,10.585,16.71v33.032H12.213C5.479,442.149,0,447.628,0,454.364
	v15.302c0,6.734,5.479,12.214,12.214,12.214h487.573c6.735,0,12.214-5.48,12.214-12.214v-15.302
	C512,447.628,506.521,442.149,499.786,442.149z M481.448,382.702c1.434,0,2.646,1.212,2.646,2.646v7.058
	c0,1.434-1.212,2.646-2.646,2.646H371.55v-12.35H481.448z M473.51,410.929v31.219H371.55v-31.219H473.51z M371.55,366.824v-18.982
	c2.157,0.115,4.32,0.187,6.48,0.187c3.196,0,6.386-0.129,9.557-0.383v19.177H371.55z M403.463,362.832v-17.545
	c4.354-0.952,8.625-2.152,12.791-3.584c0.824,3.052,2.088,5.94,3.723,8.613L403.463,362.832z M424.478,366.824l6.72-5.094
	c3.56,2.3,7.564,4.047,11.874,5.094H424.478z M474.121,333.301c0,10.355-9.669,18.779-21.555,18.779
	c-11.886,0-21.555-8.424-21.555-18.779c0-10.356,9.669-18.782,21.555-18.782C464.452,314.52,474.121,322.944,474.121,333.301z
	 M378.03,190.082c47.44,0,86.035,31.866,86.035,71.035c0,13.385-4.505,26.295-13.046,37.56
	c-16.761,0.636-30.715,11.518-34.723,26.051c-11.824,4.861-24.965,7.424-38.266,7.424c-2.16,0-4.325-0.07-6.48-0.202v-48.195
	c0-33.151-14.039-63.084-36.476-84.175C348.073,193.349,362.72,190.082,378.03,190.082z M156.32,381.671V344.62h26.462v37.051
	H156.32z M182.782,397.548v44.601H156.32v-44.601H182.782z M156.32,328.743v-37.051h26.462v37.051H156.32z M156.636,275.815
	c1.705-21.526,10.279-41.145,23.524-56.668l18.791,18.79c-8.539,10.609-14.187,23.634-15.731,37.878H156.636z M210.177,226.71
	l-18.791-18.79c15.524-13.246,35.147-21.82,56.675-23.525v26.583C233.815,212.521,220.788,218.169,210.177,226.71z M219.999,261.118
	c0,17.541-7.622,33.989-21.34,46.827v-24.189c0-16.469,6.989-31.327,18.143-41.793C218.909,248.158,219.999,254.567,219.999,261.118
	z M198.659,328.299c23.404-16.422,37.217-41.175,37.217-67.181c0-9.846-1.894-19.423-5.626-28.57
	c7.748-3.911,16.491-6.13,25.747-6.13s17.999,2.219,25.747,6.13c-3.732,9.147-5.626,18.724-5.626,28.57
	c0,26.006,13.813,50.759,37.217,67.181v113.85H198.661v-113.85H198.659z M263.938,210.979v-26.584
	c21.527,1.705,41.148,10.282,56.671,23.527l-18.79,18.79C291.209,218.172,278.183,212.523,263.938,210.979z M291.994,261.118
	c0-6.551,1.089-12.96,3.197-19.156c11.155,10.467,18.143,25.325,18.143,41.793v24.189
	C299.616,295.107,291.994,278.66,291.994,261.118z M313.045,237.941l18.791-18.79c13.243,15.521,21.816,35.139,23.52,56.663h-26.584
	C327.23,261.573,321.583,248.549,313.045,237.941z M329.211,397.548h26.462v44.601h-26.462V397.548z M329.211,381.671V344.62h26.462
	v37.051H329.211z M329.211,328.743v-37.051h26.462v37.051H329.211z M209.332,122.429c22.609,0,43.676,9.023,59.32,25.41
	c2.04,2.136,5.098,2.962,7.936,2.147c7.408-2.132,15.05-3.211,22.714-3.211c24.34,0,46.782,10.474,62.237,28.552
	c-14.266,1.963-27.785,6.497-39.908,13.383c-18.656-12.922-41.275-20.507-65.636-20.507s-46.981,7.585-65.636,20.507
	c-16.713-9.495-36.087-14.503-56.397-14.503c-0.307,0-0.613,0.007-0.92,0.011C145.269,143.269,175.309,122.429,209.332,122.429z
	 M133.964,190.082c15.309,0,29.956,3.266,42.956,9.498c-22.439,21.092-36.476,51.024-36.476,84.175v48.195
	c-2.155,0.132-4.32,0.202-6.48,0.202c-13.301,0-26.441-2.564-38.266-7.424c-4.008-14.533-17.962-25.416-34.723-26.051
	c-8.541-11.266-13.046-24.176-13.046-37.56C47.928,221.949,86.523,190.082,133.964,190.082z M140.443,347.844v18.982h-16.036
	v-19.177c3.171,0.254,6.361,0.383,9.557,0.383C136.123,348.031,138.285,347.959,140.443,347.844z M108.53,345.287v17.545
	l-16.512-12.516c1.634-2.672,2.898-5.561,3.723-8.613C99.903,343.135,104.176,344.335,108.53,345.287z M87.515,366.824H68.92
	c4.31-1.047,8.314-2.794,11.874-5.094L87.515,366.824z M59.426,314.52c11.886,0,21.555,8.425,21.555,18.782
	c0,10.355-9.669,18.779-21.555,18.779s-21.555-8.424-21.555-18.779C37.871,322.944,47.54,314.52,59.426,314.52z M27.898,385.348
	c0-1.434,1.212-2.646,2.646-2.646h109.898v12.35H30.544c-1.434,0-2.646-1.212-2.646-2.646V385.348z M140.443,410.929v31.219H38.483
	v-31.219H140.443z M496.123,466.003H15.877v-7.978h480.246V466.003z M417.237,146.774c32.162,0,58.327-26.167,58.327-58.327
	c0-32.162-26.165-58.327-58.327-58.327S358.91,56.286,358.91,88.447S385.075,146.774,417.237,146.774z M417.237,45.995
	c23.407,0,42.45,19.043,42.45,42.45s-19.043,42.45-42.45,42.45c-23.407,0-42.45-19.043-42.45-42.45S393.83,45.995,417.237,45.995z"
	/>
</svg>